<svg width="806" height="1020" viewBox="0 0 806 1020" fill="none" xmlns="http://www.w3.org/2000/svg">
<g clip-path="url(#clip0_21_45)">
<path d="M28.4 1020L114.8 985.467C201.2 950.933 374 881.867 460.4 812.8C546.8 743.733 546.8 674.667 474.71 605.6C403.7 536.533 257.9 467.467 172.31 398.4C85.1 329.333 58.1 260.267 28.4 191.2C-1.3 122.133 -28.3 53.0666 -43.69 18.5333L-58 -16.0001L806 -16.0001V18.5333C806 53.0666 806 122.133 806 191.2C806 260.267 806 329.333 806 398.4C806 467.467 806 536.533 806 605.6C806 674.667 806 743.733 806 812.8C806 881.867 806 950.933 806 985.467V1020L28.4 1020Z" fill="#0E2257"/>
<path d="M373.491 471.07C624.323 605.271 624.12 710.228 592.665 745.932C578.44 783.336 578.053 769.168 562.833 793.537C303.234 1027.03 39.8606 1069.91 -59.3763 1062.17C-79.4672 641.843 -107.594 -179.192 -59.3763 -100.757C0.896408 -2.71346 18.552 122.533 91.6098 244.946C150.056 342.876 303.883 436.5 373.491 471.07Z" fill="#4357A5"/>
</g>
<defs>
<clipPath id="clip0_21_45">
<rect width="1036" height="825" fill="white" transform="translate(-19 1020) rotate(-90)"/>
</clipPath>
</defs>
</svg>
